<mxfile host="Electron" modified="2023-11-27T03:21:19.622Z" agent="Mozilla/5.0 (X11; Linux x86_64) AppleWebKit/537.36 (KHTML, like Gecko) draw.io/22.1.2 Chrome/114.0.5735.289 Electron/25.9.4 Safari/537.36" etag="1cH8bmRrB4qUsC8f4lnr" version="22.1.2" type="device">
  <diagram name="Page-1" id="BeeQXuH5mpLVNXQqc5U8">
    <mxGraphModel dx="1434" dy="907" grid="1" gridSize="10" guides="1" tooltips="1" connect="1" arrows="1" fold="1" page="1" pageScale="1" pageWidth="850" pageHeight="1100" math="0" shadow="0">
      <root>
        <mxCell id="0" />
        <mxCell id="1" parent="0" />
        <mxCell id="WwQ5Zhibpey-EET8wIZZ-1" value="" style="edgeStyle=orthogonalEdgeStyle;shape=connector;rounded=0;orthogonalLoop=1;jettySize=auto;html=1;labelBackgroundColor=default;strokeColor=#A8201A;strokeWidth=2;align=center;verticalAlign=middle;fontFamily=Helvetica;fontSize=11;fontColor=#143642;endArrow=classic;fillColor=#FAE5C7;" edge="1" parent="1" source="WwQ5Zhibpey-EET8wIZZ-2" target="WwQ5Zhibpey-EET8wIZZ-27">
          <mxGeometry relative="1" as="geometry" />
        </mxCell>
        <mxCell id="WwQ5Zhibpey-EET8wIZZ-2" value="Start" style="ellipse;whiteSpace=wrap;html=1;aspect=fixed;strokeColor=#0F8B8D;fontColor=#143642;fillColor=#FAE5C7;strokeWidth=2;" vertex="1" parent="1">
          <mxGeometry x="220" y="370" width="80" height="80" as="geometry" />
        </mxCell>
        <mxCell id="WwQ5Zhibpey-EET8wIZZ-3" value="" style="edgeStyle=orthogonalEdgeStyle;shape=connector;rounded=0;orthogonalLoop=1;jettySize=auto;html=1;labelBackgroundColor=default;strokeColor=#A8201A;strokeWidth=2;align=center;verticalAlign=middle;fontFamily=Helvetica;fontSize=11;fontColor=#143642;endArrow=classic;fillColor=#FAE5C7;" edge="1" parent="1" source="WwQ5Zhibpey-EET8wIZZ-4" target="WwQ5Zhibpey-EET8wIZZ-8">
          <mxGeometry relative="1" as="geometry" />
        </mxCell>
        <mxCell id="WwQ5Zhibpey-EET8wIZZ-4" value="Check next location" style="rounded=1;whiteSpace=wrap;html=1;strokeColor=#0F8B8D;fontColor=#143642;fillColor=#FAE5C7;strokeWidth=2;" vertex="1" parent="1">
          <mxGeometry x="365" y="577" width="120" height="60" as="geometry" />
        </mxCell>
        <mxCell id="WwQ5Zhibpey-EET8wIZZ-5" value="No&lt;br&gt;" style="edgeStyle=orthogonalEdgeStyle;shape=connector;rounded=0;orthogonalLoop=1;jettySize=auto;html=1;labelBackgroundColor=default;strokeColor=#A8201A;strokeWidth=2;align=center;verticalAlign=middle;fontFamily=Helvetica;fontSize=11;fontColor=#143642;endArrow=classic;fillColor=#FAE5C7;" edge="1" parent="1" source="WwQ5Zhibpey-EET8wIZZ-8" target="WwQ5Zhibpey-EET8wIZZ-13">
          <mxGeometry x="0.6364" y="-17" relative="1" as="geometry">
            <mxPoint x="425" y="790" as="targetPoint" />
            <mxPoint as="offset" />
          </mxGeometry>
        </mxCell>
        <mxCell id="WwQ5Zhibpey-EET8wIZZ-6" style="edgeStyle=orthogonalEdgeStyle;shape=connector;rounded=0;orthogonalLoop=1;jettySize=auto;html=1;labelBackgroundColor=default;strokeColor=#A8201A;strokeWidth=2;align=center;verticalAlign=middle;fontFamily=Helvetica;fontSize=11;fontColor=#143642;endArrow=classic;fillColor=#FAE5C7;entryX=0;entryY=0.5;entryDx=0;entryDy=0;exitX=0;exitY=0.5;exitDx=0;exitDy=0;" edge="1" parent="1" source="WwQ5Zhibpey-EET8wIZZ-8" target="WwQ5Zhibpey-EET8wIZZ-22">
          <mxGeometry relative="1" as="geometry">
            <mxPoint x="315" y="713" as="targetPoint" />
            <Array as="points">
              <mxPoint x="330" y="713" />
              <mxPoint x="330" y="500" />
            </Array>
          </mxGeometry>
        </mxCell>
        <mxCell id="WwQ5Zhibpey-EET8wIZZ-7" value="Yes" style="edgeLabel;html=1;align=center;verticalAlign=middle;resizable=0;points=[];fontSize=11;fontFamily=Helvetica;fontColor=#143642;" vertex="1" connectable="0" parent="WwQ5Zhibpey-EET8wIZZ-6">
          <mxGeometry x="0.1865" y="-2" relative="1" as="geometry">
            <mxPoint x="28" y="150" as="offset" />
          </mxGeometry>
        </mxCell>
        <mxCell id="WwQ5Zhibpey-EET8wIZZ-8" value="Are reference &lt;br&gt;and observed states &lt;br&gt;equal?" style="rhombus;whiteSpace=wrap;html=1;rounded=0;strokeColor=#0F8B8D;strokeWidth=2;align=center;verticalAlign=middle;fontFamily=Helvetica;fontSize=11;fontColor=#143642;fillColor=#FAE5C7;" vertex="1" parent="1">
          <mxGeometry x="355" y="673" width="140" height="80" as="geometry" />
        </mxCell>
        <mxCell id="WwQ5Zhibpey-EET8wIZZ-9" value="" style="edgeStyle=orthogonalEdgeStyle;shape=connector;rounded=0;orthogonalLoop=1;jettySize=auto;html=1;labelBackgroundColor=default;strokeColor=#A8201A;strokeWidth=2;align=center;verticalAlign=middle;fontFamily=Helvetica;fontSize=11;fontColor=#143642;endArrow=classic;fillColor=#FAE5C7;" edge="1" parent="1" source="WwQ5Zhibpey-EET8wIZZ-13" target="WwQ5Zhibpey-EET8wIZZ-17">
          <mxGeometry relative="1" as="geometry" />
        </mxCell>
        <mxCell id="WwQ5Zhibpey-EET8wIZZ-10" value="Yes" style="edgeLabel;html=1;align=center;verticalAlign=middle;resizable=0;points=[];fontSize=11;fontFamily=Helvetica;fontColor=#143642;" vertex="1" connectable="0" parent="WwQ5Zhibpey-EET8wIZZ-9">
          <mxGeometry x="0.2569" y="-2" relative="1" as="geometry">
            <mxPoint x="-27" y="6" as="offset" />
          </mxGeometry>
        </mxCell>
        <mxCell id="WwQ5Zhibpey-EET8wIZZ-11" style="edgeStyle=orthogonalEdgeStyle;shape=connector;rounded=0;orthogonalLoop=1;jettySize=auto;html=1;exitX=0.5;exitY=1;exitDx=0;exitDy=0;entryX=0.5;entryY=1;entryDx=0;entryDy=0;labelBackgroundColor=default;strokeColor=#A8201A;strokeWidth=2;align=center;verticalAlign=middle;fontFamily=Helvetica;fontSize=11;fontColor=#143642;endArrow=classic;fillColor=#FAE5C7;" edge="1" parent="1" source="WwQ5Zhibpey-EET8wIZZ-13" target="WwQ5Zhibpey-EET8wIZZ-15">
          <mxGeometry relative="1" as="geometry" />
        </mxCell>
        <mxCell id="WwQ5Zhibpey-EET8wIZZ-12" value="No" style="edgeLabel;html=1;align=center;verticalAlign=middle;resizable=0;points=[];fontSize=11;fontFamily=Helvetica;fontColor=#143642;" vertex="1" connectable="0" parent="WwQ5Zhibpey-EET8wIZZ-11">
          <mxGeometry x="-0.963" relative="1" as="geometry">
            <mxPoint x="10" as="offset" />
          </mxGeometry>
        </mxCell>
        <mxCell id="WwQ5Zhibpey-EET8wIZZ-13" value="Has inner &lt;br&gt;locations?" style="rhombus;whiteSpace=wrap;html=1;rounded=0;strokeColor=#0F8B8D;strokeWidth=2;align=center;verticalAlign=middle;fontFamily=Helvetica;fontSize=11;fontColor=#143642;fillColor=#FAE5C7;" vertex="1" parent="1">
          <mxGeometry x="520" y="673" width="140" height="80" as="geometry" />
        </mxCell>
        <mxCell id="WwQ5Zhibpey-EET8wIZZ-14" style="edgeStyle=orthogonalEdgeStyle;shape=connector;rounded=0;orthogonalLoop=1;jettySize=auto;html=1;entryX=0;entryY=0.5;entryDx=0;entryDy=0;labelBackgroundColor=default;strokeColor=#A8201A;strokeWidth=2;align=center;verticalAlign=middle;fontFamily=Helvetica;fontSize=11;fontColor=#143642;endArrow=classic;fillColor=#FAE5C7;exitX=0.5;exitY=0;exitDx=0;exitDy=0;" edge="1" parent="1" source="WwQ5Zhibpey-EET8wIZZ-15" target="WwQ5Zhibpey-EET8wIZZ-22">
          <mxGeometry relative="1" as="geometry">
            <Array as="points">
              <mxPoint x="260" y="500" />
            </Array>
          </mxGeometry>
        </mxCell>
        <mxCell id="WwQ5Zhibpey-EET8wIZZ-15" value="Add to &lt;br&gt;differences found" style="rounded=1;whiteSpace=wrap;html=1;strokeColor=#0F8B8D;strokeWidth=2;align=center;verticalAlign=middle;fontFamily=Helvetica;fontSize=11;fontColor=#143642;fillColor=#FAE5C7;" vertex="1" parent="1">
          <mxGeometry x="200" y="613" width="120" height="60" as="geometry" />
        </mxCell>
        <mxCell id="WwQ5Zhibpey-EET8wIZZ-16" style="edgeStyle=orthogonalEdgeStyle;shape=connector;rounded=0;orthogonalLoop=1;jettySize=auto;html=1;entryX=1;entryY=0.5;entryDx=0;entryDy=0;labelBackgroundColor=default;strokeColor=#A8201A;strokeWidth=2;align=center;verticalAlign=middle;fontFamily=Helvetica;fontSize=11;fontColor=#143642;endArrow=classic;fillColor=#FAE5C7;" edge="1" parent="1" source="WwQ5Zhibpey-EET8wIZZ-17" target="WwQ5Zhibpey-EET8wIZZ-4">
          <mxGeometry relative="1" as="geometry" />
        </mxCell>
        <mxCell id="WwQ5Zhibpey-EET8wIZZ-17" value="Go down one &lt;br&gt;location level" style="rounded=1;whiteSpace=wrap;html=1;strokeColor=#0F8B8D;strokeWidth=2;align=center;verticalAlign=middle;fontFamily=Helvetica;fontSize=11;fontColor=#143642;fillColor=#FAE5C7;" vertex="1" parent="1">
          <mxGeometry x="530" y="577" width="120" height="60" as="geometry" />
        </mxCell>
        <mxCell id="WwQ5Zhibpey-EET8wIZZ-18" value="" style="edgeStyle=orthogonalEdgeStyle;shape=connector;rounded=0;orthogonalLoop=1;jettySize=auto;html=1;labelBackgroundColor=default;strokeColor=#A8201A;strokeWidth=2;align=center;verticalAlign=middle;fontFamily=Helvetica;fontSize=11;fontColor=#143642;endArrow=classic;fillColor=#FAE5C7;" edge="1" parent="1" source="WwQ5Zhibpey-EET8wIZZ-22" target="WwQ5Zhibpey-EET8wIZZ-24">
          <mxGeometry relative="1" as="geometry">
            <mxPoint x="554.9999999999998" y="500" as="targetPoint" />
          </mxGeometry>
        </mxCell>
        <mxCell id="WwQ5Zhibpey-EET8wIZZ-19" value="No" style="edgeLabel;html=1;align=center;verticalAlign=middle;resizable=0;points=[];fontSize=11;fontFamily=Helvetica;fontColor=#143642;" vertex="1" connectable="0" parent="WwQ5Zhibpey-EET8wIZZ-18">
          <mxGeometry x="-0.6821" y="2" relative="1" as="geometry">
            <mxPoint y="-8" as="offset" />
          </mxGeometry>
        </mxCell>
        <mxCell id="WwQ5Zhibpey-EET8wIZZ-20" style="edgeStyle=orthogonalEdgeStyle;shape=connector;rounded=0;orthogonalLoop=1;jettySize=auto;html=1;labelBackgroundColor=default;strokeColor=#A8201A;strokeWidth=2;align=center;verticalAlign=middle;fontFamily=Helvetica;fontSize=11;fontColor=#143642;endArrow=classic;fillColor=#FAE5C7;" edge="1" parent="1" source="WwQ5Zhibpey-EET8wIZZ-22" target="WwQ5Zhibpey-EET8wIZZ-4">
          <mxGeometry relative="1" as="geometry" />
        </mxCell>
        <mxCell id="WwQ5Zhibpey-EET8wIZZ-21" value="Yes" style="edgeLabel;html=1;align=center;verticalAlign=middle;resizable=0;points=[];fontSize=11;fontFamily=Helvetica;fontColor=#143642;" vertex="1" connectable="0" parent="WwQ5Zhibpey-EET8wIZZ-20">
          <mxGeometry x="-0.4943" y="1" relative="1" as="geometry">
            <mxPoint x="14" as="offset" />
          </mxGeometry>
        </mxCell>
        <mxCell id="WwQ5Zhibpey-EET8wIZZ-22" value="Are there locations &lt;br&gt;left to check?" style="rhombus;whiteSpace=wrap;html=1;rounded=0;strokeColor=#0F8B8D;strokeWidth=2;align=center;verticalAlign=middle;fontFamily=Helvetica;fontSize=11;fontColor=#143642;fillColor=#FAE5C7;" vertex="1" parent="1">
          <mxGeometry x="355" y="460" width="140" height="80" as="geometry" />
        </mxCell>
        <mxCell id="WwQ5Zhibpey-EET8wIZZ-23" value="" style="edgeStyle=orthogonalEdgeStyle;shape=connector;rounded=0;orthogonalLoop=1;jettySize=auto;html=1;labelBackgroundColor=default;strokeColor=#A8201A;strokeWidth=2;align=center;verticalAlign=middle;fontFamily=Helvetica;fontSize=11;fontColor=#143642;endArrow=classic;fillColor=#FAE5C7;" edge="1" parent="1" source="WwQ5Zhibpey-EET8wIZZ-24" target="WwQ5Zhibpey-EET8wIZZ-25">
          <mxGeometry relative="1" as="geometry" />
        </mxCell>
        <mxCell id="WwQ5Zhibpey-EET8wIZZ-24" value="Report differences found" style="rounded=1;whiteSpace=wrap;html=1;strokeColor=#0F8B8D;strokeWidth=2;align=center;verticalAlign=middle;fontFamily=Helvetica;fontSize=11;fontColor=#143642;fillColor=#FAE5C7;" vertex="1" parent="1">
          <mxGeometry x="530" y="470" width="120" height="60" as="geometry" />
        </mxCell>
        <mxCell id="WwQ5Zhibpey-EET8wIZZ-25" value="End" style="ellipse;whiteSpace=wrap;html=1;aspect=fixed;strokeColor=#0F8B8D;fontColor=#143642;fillColor=#FAE5C7;strokeWidth=2;" vertex="1" parent="1">
          <mxGeometry x="550" y="360" width="80" height="80" as="geometry" />
        </mxCell>
        <mxCell id="WwQ5Zhibpey-EET8wIZZ-26" value="" style="edgeStyle=orthogonalEdgeStyle;shape=connector;rounded=0;orthogonalLoop=1;jettySize=auto;html=1;labelBackgroundColor=default;strokeColor=#A8201A;strokeWidth=2;align=center;verticalAlign=middle;fontFamily=Helvetica;fontSize=11;fontColor=#143642;endArrow=classic;fillColor=#FAE5C7;" edge="1" parent="1" source="WwQ5Zhibpey-EET8wIZZ-27" target="WwQ5Zhibpey-EET8wIZZ-22">
          <mxGeometry relative="1" as="geometry" />
        </mxCell>
        <mxCell id="WwQ5Zhibpey-EET8wIZZ-27" value="Get locations from reference state" style="rounded=1;whiteSpace=wrap;html=1;strokeColor=#0F8B8D;strokeWidth=2;align=center;verticalAlign=middle;fontFamily=Helvetica;fontSize=11;fontColor=#143642;fillColor=#FAE5C7;" vertex="1" parent="1">
          <mxGeometry x="365" y="380" width="120" height="60" as="geometry" />
        </mxCell>
      </root>
    </mxGraphModel>
  </diagram>
</mxfile>
